G04 #@! TF.FileFunction,Copper,L2,Bot,Signal*
%FSLAX46Y46*%
G04 Gerber Fmt 4.6, Leading zero omitted, Abs format (unit mm)*
G04 Created by KiCad (PCBNEW 4.0.4+e1-6308~48~ubuntu16.04.1-stable) date Wed Oct 19 23:12:46 2016*
%MOMM*%
%LPD*%
G01*
G04 APERTURE LIST*
%ADD10C,0.100000*%
%ADD11C,5.000000*%
%ADD12C,3.500000*%
%ADD13C,0.250000*%
%ADD14C,0.254000*%
G04 APERTURE END LIST*
D10*
D11*
X153950000Y-74250000D03*
X146050000Y-74250000D03*
X153950000Y-83750000D03*
X146050000Y-83750000D03*
X153950000Y-93250000D03*
X146050000Y-93250000D03*
X153950000Y-102750000D03*
X146050000Y-102750000D03*
X153950000Y-112250000D03*
X146050000Y-112250000D03*
D12*
X174990000Y-75940000D03*
X174990000Y-72550000D03*
X178750000Y-75950000D03*
X178750000Y-72550000D03*
X165250000Y-75950000D03*
X165250000Y-72550000D03*
X174990000Y-85440000D03*
X174990000Y-82050000D03*
X178750000Y-85450000D03*
X178750000Y-82050000D03*
X165250000Y-85450000D03*
X165250000Y-82050000D03*
X174990000Y-94940000D03*
X174990000Y-91550000D03*
X178750000Y-94950000D03*
X178750000Y-91550000D03*
X165250000Y-94950000D03*
X165250000Y-91550000D03*
X174990000Y-104440000D03*
X174990000Y-101050000D03*
X178750000Y-104450000D03*
X178750000Y-101050000D03*
X165250000Y-104450000D03*
X165250000Y-101050000D03*
X174990000Y-113940000D03*
X174990000Y-110550000D03*
X178750000Y-113950000D03*
X178750000Y-110550000D03*
X165250000Y-113950000D03*
X165250000Y-110550000D03*
D13*
X174990000Y-75940000D02*
X174990000Y-72550000D01*
X174990000Y-72550000D02*
X178750000Y-72550000D01*
X178750000Y-72550000D02*
X178750000Y-75950000D01*
X178750000Y-75950000D02*
X178750000Y-82050000D01*
X178750000Y-82050000D02*
X174990000Y-82050000D01*
X174990000Y-82050000D02*
X174990000Y-85440000D01*
X174990000Y-85440000D02*
X175000000Y-85450000D01*
X175000000Y-85450000D02*
X178750000Y-85450000D01*
X178750000Y-85450000D02*
X178750000Y-91550000D01*
X178750000Y-91550000D02*
X174990000Y-91550000D01*
X174990000Y-91550000D02*
X174990000Y-94940000D01*
X174990000Y-94940000D02*
X175000000Y-94950000D01*
X175000000Y-94950000D02*
X178750000Y-94950000D01*
X178750000Y-94950000D02*
X178750000Y-101050000D01*
X178750000Y-101050000D02*
X174990000Y-101050000D01*
X174990000Y-101050000D02*
X174990000Y-104440000D01*
X174990000Y-104440000D02*
X175000000Y-104450000D01*
X175000000Y-104450000D02*
X178750000Y-104450000D01*
X178750000Y-104450000D02*
X178750000Y-110550000D01*
X178750000Y-110550000D02*
X174990000Y-110550000D01*
X174990000Y-110550000D02*
X174990000Y-113940000D01*
X174990000Y-113940000D02*
X175000000Y-113950000D01*
X175000000Y-113950000D02*
X178750000Y-113950000D01*
X165250000Y-72550000D02*
X165250000Y-75950000D01*
X153950000Y-74250000D02*
X163550000Y-74250000D01*
X163550000Y-74250000D02*
X165250000Y-72550000D01*
X165250000Y-82050000D02*
X165250000Y-85450000D01*
X153950000Y-83750000D02*
X163550000Y-83750000D01*
X163550000Y-83750000D02*
X165250000Y-82050000D01*
X165250000Y-91550000D02*
X165250000Y-94950000D01*
X153950000Y-93250000D02*
X163550000Y-93250000D01*
X163550000Y-93250000D02*
X165250000Y-91550000D01*
X165250000Y-101050000D02*
X165250000Y-104450000D01*
X153950000Y-102750000D02*
X163550000Y-102750000D01*
X163550000Y-102750000D02*
X165250000Y-101050000D01*
X165250000Y-110550000D02*
X165250000Y-113950000D01*
X153950000Y-112250000D02*
X163550000Y-112250000D01*
X163550000Y-112250000D02*
X165250000Y-110550000D01*
X146050000Y-74250000D02*
X146050000Y-83750000D01*
X146050000Y-83750000D02*
X146050000Y-93250000D01*
X146050000Y-93250000D02*
X146050000Y-102750000D01*
X146050000Y-102750000D02*
X146050000Y-112250000D01*
D14*
G36*
X148333130Y-70695752D02*
X148615545Y-70884455D01*
X148804248Y-71166870D01*
X148873000Y-71512509D01*
X148873000Y-114987491D01*
X148804248Y-115333130D01*
X148615545Y-115615545D01*
X148333130Y-115804248D01*
X147987491Y-115873000D01*
X138012509Y-115873000D01*
X137666870Y-115804248D01*
X137384455Y-115615545D01*
X137195752Y-115333130D01*
X137127000Y-114987491D01*
X137127000Y-71512509D01*
X137195752Y-71166870D01*
X137384455Y-70884455D01*
X137666870Y-70695752D01*
X138012509Y-70627000D01*
X147987491Y-70627000D01*
X148333130Y-70695752D01*
X148333130Y-70695752D01*
G37*
X148333130Y-70695752D02*
X148615545Y-70884455D01*
X148804248Y-71166870D01*
X148873000Y-71512509D01*
X148873000Y-114987491D01*
X148804248Y-115333130D01*
X148615545Y-115615545D01*
X148333130Y-115804248D01*
X147987491Y-115873000D01*
X138012509Y-115873000D01*
X137666870Y-115804248D01*
X137384455Y-115615545D01*
X137195752Y-115333130D01*
X137127000Y-114987491D01*
X137127000Y-71512509D01*
X137195752Y-71166870D01*
X137384455Y-70884455D01*
X137666870Y-70695752D01*
X138012509Y-70627000D01*
X147987491Y-70627000D01*
X148333130Y-70695752D01*
G36*
X167333130Y-70695752D02*
X167615545Y-70884455D01*
X167804248Y-71166870D01*
X167873000Y-71512509D01*
X167873000Y-76987491D01*
X167804248Y-77333130D01*
X167615545Y-77615545D01*
X167333130Y-77804248D01*
X166987491Y-77873000D01*
X152012509Y-77873000D01*
X151666870Y-77804248D01*
X151384455Y-77615545D01*
X151195752Y-77333130D01*
X151127000Y-76987491D01*
X151127000Y-71512509D01*
X151195752Y-71166870D01*
X151384455Y-70884455D01*
X151666870Y-70695752D01*
X152012509Y-70627000D01*
X166987491Y-70627000D01*
X167333130Y-70695752D01*
X167333130Y-70695752D01*
G37*
X167333130Y-70695752D02*
X167615545Y-70884455D01*
X167804248Y-71166870D01*
X167873000Y-71512509D01*
X167873000Y-76987491D01*
X167804248Y-77333130D01*
X167615545Y-77615545D01*
X167333130Y-77804248D01*
X166987491Y-77873000D01*
X152012509Y-77873000D01*
X151666870Y-77804248D01*
X151384455Y-77615545D01*
X151195752Y-77333130D01*
X151127000Y-76987491D01*
X151127000Y-71512509D01*
X151195752Y-71166870D01*
X151384455Y-70884455D01*
X151666870Y-70695752D01*
X152012509Y-70627000D01*
X166987491Y-70627000D01*
X167333130Y-70695752D01*
G36*
X167333130Y-80195752D02*
X167615545Y-80384455D01*
X167804248Y-80666870D01*
X167873000Y-81012509D01*
X167873000Y-86487491D01*
X167804248Y-86833130D01*
X167615545Y-87115545D01*
X167333130Y-87304248D01*
X166987491Y-87373000D01*
X152012509Y-87373000D01*
X151666870Y-87304248D01*
X151384455Y-87115545D01*
X151195752Y-86833130D01*
X151127000Y-86487491D01*
X151127000Y-81012509D01*
X151195752Y-80666870D01*
X151384455Y-80384455D01*
X151666870Y-80195752D01*
X152012509Y-80127000D01*
X166987491Y-80127000D01*
X167333130Y-80195752D01*
X167333130Y-80195752D01*
G37*
X167333130Y-80195752D02*
X167615545Y-80384455D01*
X167804248Y-80666870D01*
X167873000Y-81012509D01*
X167873000Y-86487491D01*
X167804248Y-86833130D01*
X167615545Y-87115545D01*
X167333130Y-87304248D01*
X166987491Y-87373000D01*
X152012509Y-87373000D01*
X151666870Y-87304248D01*
X151384455Y-87115545D01*
X151195752Y-86833130D01*
X151127000Y-86487491D01*
X151127000Y-81012509D01*
X151195752Y-80666870D01*
X151384455Y-80384455D01*
X151666870Y-80195752D01*
X152012509Y-80127000D01*
X166987491Y-80127000D01*
X167333130Y-80195752D01*
G36*
X167333130Y-89695752D02*
X167615545Y-89884455D01*
X167804248Y-90166870D01*
X167873000Y-90512509D01*
X167873000Y-95987491D01*
X167804248Y-96333130D01*
X167615545Y-96615545D01*
X167333130Y-96804248D01*
X166987491Y-96873000D01*
X152012509Y-96873000D01*
X151666870Y-96804248D01*
X151384455Y-96615545D01*
X151195752Y-96333130D01*
X151127000Y-95987491D01*
X151127000Y-90512509D01*
X151195752Y-90166870D01*
X151384455Y-89884455D01*
X151666870Y-89695752D01*
X152012509Y-89627000D01*
X166987491Y-89627000D01*
X167333130Y-89695752D01*
X167333130Y-89695752D01*
G37*
X167333130Y-89695752D02*
X167615545Y-89884455D01*
X167804248Y-90166870D01*
X167873000Y-90512509D01*
X167873000Y-95987491D01*
X167804248Y-96333130D01*
X167615545Y-96615545D01*
X167333130Y-96804248D01*
X166987491Y-96873000D01*
X152012509Y-96873000D01*
X151666870Y-96804248D01*
X151384455Y-96615545D01*
X151195752Y-96333130D01*
X151127000Y-95987491D01*
X151127000Y-90512509D01*
X151195752Y-90166870D01*
X151384455Y-89884455D01*
X151666870Y-89695752D01*
X152012509Y-89627000D01*
X166987491Y-89627000D01*
X167333130Y-89695752D01*
G36*
X167333130Y-99195752D02*
X167615545Y-99384455D01*
X167804248Y-99666870D01*
X167873000Y-100012509D01*
X167873000Y-105487491D01*
X167804248Y-105833130D01*
X167615545Y-106115545D01*
X167333130Y-106304248D01*
X166987491Y-106373000D01*
X152012509Y-106373000D01*
X151666870Y-106304248D01*
X151384455Y-106115545D01*
X151195752Y-105833130D01*
X151127000Y-105487491D01*
X151127000Y-100012509D01*
X151195752Y-99666870D01*
X151384455Y-99384455D01*
X151666870Y-99195752D01*
X152012509Y-99127000D01*
X166987491Y-99127000D01*
X167333130Y-99195752D01*
X167333130Y-99195752D01*
G37*
X167333130Y-99195752D02*
X167615545Y-99384455D01*
X167804248Y-99666870D01*
X167873000Y-100012509D01*
X167873000Y-105487491D01*
X167804248Y-105833130D01*
X167615545Y-106115545D01*
X167333130Y-106304248D01*
X166987491Y-106373000D01*
X152012509Y-106373000D01*
X151666870Y-106304248D01*
X151384455Y-106115545D01*
X151195752Y-105833130D01*
X151127000Y-105487491D01*
X151127000Y-100012509D01*
X151195752Y-99666870D01*
X151384455Y-99384455D01*
X151666870Y-99195752D01*
X152012509Y-99127000D01*
X166987491Y-99127000D01*
X167333130Y-99195752D01*
G36*
X167333130Y-108695752D02*
X167615545Y-108884455D01*
X167804248Y-109166870D01*
X167873000Y-109512509D01*
X167873000Y-114987491D01*
X167804248Y-115333130D01*
X167615545Y-115615545D01*
X167333130Y-115804248D01*
X166987491Y-115873000D01*
X152012509Y-115873000D01*
X151666870Y-115804248D01*
X151384455Y-115615545D01*
X151195752Y-115333130D01*
X151127000Y-114987491D01*
X151127000Y-109512509D01*
X151195752Y-109166870D01*
X151384455Y-108884455D01*
X151666870Y-108695752D01*
X152012509Y-108627000D01*
X166987491Y-108627000D01*
X167333130Y-108695752D01*
X167333130Y-108695752D01*
G37*
X167333130Y-108695752D02*
X167615545Y-108884455D01*
X167804248Y-109166870D01*
X167873000Y-109512509D01*
X167873000Y-114987491D01*
X167804248Y-115333130D01*
X167615545Y-115615545D01*
X167333130Y-115804248D01*
X166987491Y-115873000D01*
X152012509Y-115873000D01*
X151666870Y-115804248D01*
X151384455Y-115615545D01*
X151195752Y-115333130D01*
X151127000Y-114987491D01*
X151127000Y-109512509D01*
X151195752Y-109166870D01*
X151384455Y-108884455D01*
X151666870Y-108695752D01*
X152012509Y-108627000D01*
X166987491Y-108627000D01*
X167333130Y-108695752D01*
G36*
X182833130Y-70695752D02*
X183115545Y-70884455D01*
X183304248Y-71166870D01*
X183373000Y-71512509D01*
X183373000Y-114987491D01*
X183304248Y-115333130D01*
X183115545Y-115615545D01*
X182833130Y-115804248D01*
X182487491Y-115873000D01*
X171012509Y-115873000D01*
X170666870Y-115804248D01*
X170384455Y-115615545D01*
X170195752Y-115333130D01*
X170127000Y-114987491D01*
X170127000Y-71512509D01*
X170195752Y-71166870D01*
X170384455Y-70884455D01*
X170666870Y-70695752D01*
X171012509Y-70627000D01*
X182487491Y-70627000D01*
X182833130Y-70695752D01*
X182833130Y-70695752D01*
G37*
X182833130Y-70695752D02*
X183115545Y-70884455D01*
X183304248Y-71166870D01*
X183373000Y-71512509D01*
X183373000Y-114987491D01*
X183304248Y-115333130D01*
X183115545Y-115615545D01*
X182833130Y-115804248D01*
X182487491Y-115873000D01*
X171012509Y-115873000D01*
X170666870Y-115804248D01*
X170384455Y-115615545D01*
X170195752Y-115333130D01*
X170127000Y-114987491D01*
X170127000Y-71512509D01*
X170195752Y-71166870D01*
X170384455Y-70884455D01*
X170666870Y-70695752D01*
X171012509Y-70627000D01*
X182487491Y-70627000D01*
X182833130Y-70695752D01*
M02*
