M48
;DRILL file {KiCad 4.0.4+e1-6308~48~ubuntu16.04.1-stable} date Wed Oct 19 23:12:49 2016
;FORMAT={-:-/ absolute / inch / decimal}
FMAT,2
INCH,TZ
T1C0.067
T2C0.093
%
G90
G05
M72
T1
X6.5059Y-2.8563
X6.5059Y-2.9902
X6.5059Y-3.2303
X6.5059Y-3.3642
X6.5059Y-3.6043
X6.5059Y-3.7382
X6.5059Y-3.9783
X6.5059Y-4.1122
X6.5059Y-4.3524
X6.5059Y-4.4862
X6.8894Y-2.8563
X6.8894Y-2.9898
X6.8894Y-3.2303
X6.8894Y-3.3638
X6.8894Y-3.6043
X6.8894Y-3.7378
X6.8894Y-3.9783
X6.8894Y-4.1118
X6.8894Y-4.3524
X6.8894Y-4.4858
X7.0374Y-2.8563
X7.0374Y-2.9902
X7.0374Y-3.2303
X7.0374Y-3.3642
X7.0374Y-3.6043
X7.0374Y-3.7382
X7.0374Y-3.9783
X7.0374Y-4.1122
X7.0374Y-4.3524
X7.0374Y-4.4862
T2
X5.75Y-2.9232
X5.75Y-3.2972
X5.75Y-3.6713
X5.75Y-4.0453
X5.75Y-4.4193
X6.061Y-2.9232
X6.061Y-3.2972
X6.061Y-3.6713
X6.061Y-4.0453
X6.061Y-4.4193
T0
M30
