G04 #@! TF.FileFunction,Legend,Top*
%FSLAX46Y46*%
G04 Gerber Fmt 4.6, Leading zero omitted, Abs format (unit mm)*
G04 Created by KiCad (PCBNEW 4.0.4+e1-6308~48~ubuntu16.04.1-stable) date Wed Oct 19 23:12:46 2016*
%MOMM*%
%LPD*%
G01*
G04 APERTURE LIST*
%ADD10C,0.100000*%
%ADD11C,0.150000*%
G04 APERTURE END LIST*
D10*
D11*
X141750000Y-70000000D02*
X158250000Y-70000000D01*
X158250000Y-70000000D02*
X158250000Y-78500000D01*
X158250000Y-78500000D02*
X141750000Y-78500000D01*
X141750000Y-78500000D02*
X141750000Y-70000000D01*
X141750000Y-79500000D02*
X158250000Y-79500000D01*
X158250000Y-79500000D02*
X158250000Y-88000000D01*
X158250000Y-88000000D02*
X141750000Y-88000000D01*
X141750000Y-88000000D02*
X141750000Y-79500000D01*
X141750000Y-89000000D02*
X158250000Y-89000000D01*
X158250000Y-89000000D02*
X158250000Y-97500000D01*
X158250000Y-97500000D02*
X141750000Y-97500000D01*
X141750000Y-97500000D02*
X141750000Y-89000000D01*
X141750000Y-98500000D02*
X158250000Y-98500000D01*
X158250000Y-98500000D02*
X158250000Y-107000000D01*
X158250000Y-107000000D02*
X141750000Y-107000000D01*
X141750000Y-107000000D02*
X141750000Y-98500000D01*
X141750000Y-108000000D02*
X158250000Y-108000000D01*
X158250000Y-108000000D02*
X158250000Y-116500000D01*
X158250000Y-116500000D02*
X141750000Y-116500000D01*
X141750000Y-116500000D02*
X141750000Y-108000000D01*
X162100000Y-77650000D02*
X162100000Y-70850000D01*
X162100000Y-70850000D02*
X181900000Y-70850000D01*
X181900000Y-70850000D02*
X181900000Y-77650000D01*
X181900000Y-77650000D02*
X162100000Y-77650000D01*
X162100000Y-87150000D02*
X162100000Y-80350000D01*
X162100000Y-80350000D02*
X181900000Y-80350000D01*
X181900000Y-80350000D02*
X181900000Y-87150000D01*
X181900000Y-87150000D02*
X162100000Y-87150000D01*
X162100000Y-96650000D02*
X162100000Y-89850000D01*
X162100000Y-89850000D02*
X181900000Y-89850000D01*
X181900000Y-89850000D02*
X181900000Y-96650000D01*
X181900000Y-96650000D02*
X162100000Y-96650000D01*
X162100000Y-106150000D02*
X162100000Y-99350000D01*
X162100000Y-99350000D02*
X181900000Y-99350000D01*
X181900000Y-99350000D02*
X181900000Y-106150000D01*
X181900000Y-106150000D02*
X162100000Y-106150000D01*
X162100000Y-115650000D02*
X162100000Y-108850000D01*
X162100000Y-108850000D02*
X181900000Y-108850000D01*
X181900000Y-108850000D02*
X181900000Y-115650000D01*
X181900000Y-115650000D02*
X162100000Y-115650000D01*
X149261905Y-77952381D02*
X149261905Y-76952381D01*
X149642858Y-76952381D01*
X149738096Y-77000000D01*
X149785715Y-77047619D01*
X149833334Y-77142857D01*
X149833334Y-77285714D01*
X149785715Y-77380952D01*
X149738096Y-77428571D01*
X149642858Y-77476190D01*
X149261905Y-77476190D01*
X150785715Y-77952381D02*
X150214286Y-77952381D01*
X150500000Y-77952381D02*
X150500000Y-76952381D01*
X150404762Y-77095238D01*
X150309524Y-77190476D01*
X150214286Y-77238095D01*
X149261905Y-87452381D02*
X149261905Y-86452381D01*
X149642858Y-86452381D01*
X149738096Y-86500000D01*
X149785715Y-86547619D01*
X149833334Y-86642857D01*
X149833334Y-86785714D01*
X149785715Y-86880952D01*
X149738096Y-86928571D01*
X149642858Y-86976190D01*
X149261905Y-86976190D01*
X150214286Y-86547619D02*
X150261905Y-86500000D01*
X150357143Y-86452381D01*
X150595239Y-86452381D01*
X150690477Y-86500000D01*
X150738096Y-86547619D01*
X150785715Y-86642857D01*
X150785715Y-86738095D01*
X150738096Y-86880952D01*
X150166667Y-87452381D01*
X150785715Y-87452381D01*
X149261905Y-96952381D02*
X149261905Y-95952381D01*
X149642858Y-95952381D01*
X149738096Y-96000000D01*
X149785715Y-96047619D01*
X149833334Y-96142857D01*
X149833334Y-96285714D01*
X149785715Y-96380952D01*
X149738096Y-96428571D01*
X149642858Y-96476190D01*
X149261905Y-96476190D01*
X150166667Y-95952381D02*
X150785715Y-95952381D01*
X150452381Y-96333333D01*
X150595239Y-96333333D01*
X150690477Y-96380952D01*
X150738096Y-96428571D01*
X150785715Y-96523810D01*
X150785715Y-96761905D01*
X150738096Y-96857143D01*
X150690477Y-96904762D01*
X150595239Y-96952381D01*
X150309524Y-96952381D01*
X150214286Y-96904762D01*
X150166667Y-96857143D01*
X149261905Y-106452381D02*
X149261905Y-105452381D01*
X149642858Y-105452381D01*
X149738096Y-105500000D01*
X149785715Y-105547619D01*
X149833334Y-105642857D01*
X149833334Y-105785714D01*
X149785715Y-105880952D01*
X149738096Y-105928571D01*
X149642858Y-105976190D01*
X149261905Y-105976190D01*
X150690477Y-105785714D02*
X150690477Y-106452381D01*
X150452381Y-105404762D02*
X150214286Y-106119048D01*
X150833334Y-106119048D01*
X149261905Y-115952381D02*
X149261905Y-114952381D01*
X149642858Y-114952381D01*
X149738096Y-115000000D01*
X149785715Y-115047619D01*
X149833334Y-115142857D01*
X149833334Y-115285714D01*
X149785715Y-115380952D01*
X149738096Y-115428571D01*
X149642858Y-115476190D01*
X149261905Y-115476190D01*
X150738096Y-114952381D02*
X150261905Y-114952381D01*
X150214286Y-115428571D01*
X150261905Y-115380952D01*
X150357143Y-115333333D01*
X150595239Y-115333333D01*
X150690477Y-115380952D01*
X150738096Y-115428571D01*
X150785715Y-115523810D01*
X150785715Y-115761905D01*
X150738096Y-115857143D01*
X150690477Y-115904762D01*
X150595239Y-115952381D01*
X150357143Y-115952381D01*
X150261905Y-115904762D01*
X150214286Y-115857143D01*
X169916667Y-76678571D02*
X169583333Y-76678571D01*
X169583333Y-77202381D02*
X169583333Y-76202381D01*
X170059524Y-76202381D01*
X170964286Y-77202381D02*
X170392857Y-77202381D01*
X170678571Y-77202381D02*
X170678571Y-76202381D01*
X170583333Y-76345238D01*
X170488095Y-76440476D01*
X170392857Y-76488095D01*
X169916667Y-86178571D02*
X169583333Y-86178571D01*
X169583333Y-86702381D02*
X169583333Y-85702381D01*
X170059524Y-85702381D01*
X170392857Y-85797619D02*
X170440476Y-85750000D01*
X170535714Y-85702381D01*
X170773810Y-85702381D01*
X170869048Y-85750000D01*
X170916667Y-85797619D01*
X170964286Y-85892857D01*
X170964286Y-85988095D01*
X170916667Y-86130952D01*
X170345238Y-86702381D01*
X170964286Y-86702381D01*
X169916667Y-95678571D02*
X169583333Y-95678571D01*
X169583333Y-96202381D02*
X169583333Y-95202381D01*
X170059524Y-95202381D01*
X170345238Y-95202381D02*
X170964286Y-95202381D01*
X170630952Y-95583333D01*
X170773810Y-95583333D01*
X170869048Y-95630952D01*
X170916667Y-95678571D01*
X170964286Y-95773810D01*
X170964286Y-96011905D01*
X170916667Y-96107143D01*
X170869048Y-96154762D01*
X170773810Y-96202381D01*
X170488095Y-96202381D01*
X170392857Y-96154762D01*
X170345238Y-96107143D01*
X169916667Y-105178571D02*
X169583333Y-105178571D01*
X169583333Y-105702381D02*
X169583333Y-104702381D01*
X170059524Y-104702381D01*
X170869048Y-105035714D02*
X170869048Y-105702381D01*
X170630952Y-104654762D02*
X170392857Y-105369048D01*
X171011905Y-105369048D01*
X169916667Y-114678571D02*
X169583333Y-114678571D01*
X169583333Y-115202381D02*
X169583333Y-114202381D01*
X170059524Y-114202381D01*
X170916667Y-114202381D02*
X170440476Y-114202381D01*
X170392857Y-114678571D01*
X170440476Y-114630952D01*
X170535714Y-114583333D01*
X170773810Y-114583333D01*
X170869048Y-114630952D01*
X170916667Y-114678571D01*
X170964286Y-114773810D01*
X170964286Y-115011905D01*
X170916667Y-115107143D01*
X170869048Y-115154762D01*
X170773810Y-115202381D01*
X170535714Y-115202381D01*
X170440476Y-115154762D01*
X170392857Y-115107143D01*
M02*
