G04 #@! TF.FileFunction,Legend,Bot*
%FSLAX46Y46*%
G04 Gerber Fmt 4.6, Leading zero omitted, Abs format (unit mm)*
G04 Created by KiCad (PCBNEW 4.0.4+e1-6308~48~ubuntu16.04.1-stable) date Wed Oct 19 23:12:46 2016*
%MOMM*%
%LPD*%
G01*
G04 APERTURE LIST*
%ADD10C,0.100000*%
%ADD11C,0.300000*%
G04 APERTURE END LIST*
D10*
D11*
X138821429Y-80119047D02*
X138821429Y-80880952D01*
X138154762Y-80404761D02*
X139869048Y-80404761D01*
X140059524Y-80500000D01*
X140154762Y-80690476D01*
X140154762Y-80880952D01*
X140154762Y-81547618D02*
X138821429Y-81547618D01*
X138154762Y-81547618D02*
X138250000Y-81452380D01*
X138345238Y-81547618D01*
X138250000Y-81642857D01*
X138154762Y-81547618D01*
X138345238Y-81547618D01*
X140154762Y-82499999D02*
X138821429Y-82499999D01*
X139011905Y-82499999D02*
X138916667Y-82595238D01*
X138821429Y-82785714D01*
X138821429Y-83071428D01*
X138916667Y-83261904D01*
X139107143Y-83357142D01*
X140154762Y-83357142D01*
X139107143Y-83357142D02*
X138916667Y-83452380D01*
X138821429Y-83642857D01*
X138821429Y-83928571D01*
X138916667Y-84119047D01*
X139107143Y-84214285D01*
X140154762Y-84214285D01*
X140154762Y-85166666D02*
X138154762Y-85166666D01*
X140154762Y-86023809D02*
X139107143Y-86023809D01*
X138916667Y-85928571D01*
X138821429Y-85738095D01*
X138821429Y-85452381D01*
X138916667Y-85261905D01*
X139011905Y-85166666D01*
X140154762Y-87833333D02*
X139107143Y-87833333D01*
X138916667Y-87738095D01*
X138821429Y-87547619D01*
X138821429Y-87166667D01*
X138916667Y-86976190D01*
X140059524Y-87833333D02*
X140154762Y-87642857D01*
X140154762Y-87166667D01*
X140059524Y-86976190D01*
X139869048Y-86880952D01*
X139678571Y-86880952D01*
X139488095Y-86976190D01*
X139392857Y-87166667D01*
X139392857Y-87642857D01*
X139297619Y-87833333D01*
X138821429Y-88595238D02*
X140154762Y-88976191D01*
X139202381Y-89357143D01*
X140154762Y-89738095D01*
X138821429Y-90119048D01*
X140059524Y-91642857D02*
X140154762Y-91452381D01*
X140154762Y-91071429D01*
X140059524Y-90880952D01*
X139869048Y-90785714D01*
X139107143Y-90785714D01*
X138916667Y-90880952D01*
X138821429Y-91071429D01*
X138821429Y-91452381D01*
X138916667Y-91642857D01*
X139107143Y-91738095D01*
X139297619Y-91738095D01*
X139488095Y-90785714D01*
X140059524Y-92500000D02*
X140154762Y-92690477D01*
X140154762Y-93071429D01*
X140059524Y-93261905D01*
X139869048Y-93357143D01*
X139773810Y-93357143D01*
X139583333Y-93261905D01*
X139488095Y-93071429D01*
X139488095Y-92785715D01*
X139392857Y-92595238D01*
X139202381Y-92500000D01*
X139107143Y-92500000D01*
X138916667Y-92595238D01*
X138821429Y-92785715D01*
X138821429Y-93071429D01*
X138916667Y-93261905D01*
X139964286Y-94214286D02*
X140059524Y-94309525D01*
X140154762Y-94214286D01*
X140059524Y-94119048D01*
X139964286Y-94214286D01*
X140154762Y-94214286D01*
X140059524Y-96023810D02*
X140154762Y-95833334D01*
X140154762Y-95452382D01*
X140059524Y-95261906D01*
X139964286Y-95166667D01*
X139773810Y-95071429D01*
X139202381Y-95071429D01*
X139011905Y-95166667D01*
X138916667Y-95261906D01*
X138821429Y-95452382D01*
X138821429Y-95833334D01*
X138916667Y-96023810D01*
X140154762Y-97166668D02*
X140059524Y-96976192D01*
X139964286Y-96880953D01*
X139773810Y-96785715D01*
X139202381Y-96785715D01*
X139011905Y-96880953D01*
X138916667Y-96976192D01*
X138821429Y-97166668D01*
X138821429Y-97452382D01*
X138916667Y-97642858D01*
X139011905Y-97738096D01*
X139202381Y-97833334D01*
X139773810Y-97833334D01*
X139964286Y-97738096D01*
X140059524Y-97642858D01*
X140154762Y-97452382D01*
X140154762Y-97166668D01*
X140154762Y-98690477D02*
X138821429Y-98690477D01*
X139011905Y-98690477D02*
X138916667Y-98785716D01*
X138821429Y-98976192D01*
X138821429Y-99261906D01*
X138916667Y-99452382D01*
X139107143Y-99547620D01*
X140154762Y-99547620D01*
X139107143Y-99547620D02*
X138916667Y-99642858D01*
X138821429Y-99833335D01*
X138821429Y-100119049D01*
X138916667Y-100309525D01*
X139107143Y-100404763D01*
X140154762Y-100404763D01*
X138059524Y-102785716D02*
X140630952Y-101071430D01*
X138821429Y-103166668D02*
X138821429Y-103928573D01*
X138154762Y-103452382D02*
X139869048Y-103452382D01*
X140059524Y-103547621D01*
X140154762Y-103738097D01*
X140154762Y-103928573D01*
X140154762Y-104880954D02*
X140059524Y-104690478D01*
X139869048Y-104595239D01*
X138154762Y-104595239D01*
X140154762Y-106690478D02*
X140154762Y-105547620D01*
X140154762Y-106119049D02*
X138154762Y-106119049D01*
X138440476Y-105928573D01*
X138630952Y-105738097D01*
X138726190Y-105547620D01*
M02*
